<svg width="549" height="390" viewBox="0 0 549 390" fill="none" xmlns="http://www.w3.org/2000/svg">
<path d="M100.729 179.102C89.5635 96.4893 62.3204 59.6079 0 0L153.785 56.7292L228.37 170.998L242.98 97.25C260.5 119.5 265.5 127.5 268 129C270.5 130.5 274 130.5 274 130.5V389C221.46 308.008 184.473 211.824 100.729 179.102Z" fill="#FE0000"/>
<path d="M446.639 179.102C457.763 96.4893 484.907 59.6079 547 0L393.777 56.7292L319.463 170.998L304.907 97.25C287.451 119.5 282.469 127.5 279.978 129C277.487 130.5 274 130.5 274 130.5V389C326.349 308.008 363.201 211.824 446.639 179.102Z" fill="#FE0000"/>
</svg>
