<svg width="516" height="534" viewBox="0 0 516 534" fill="none" xmlns="http://www.w3.org/2000/svg">
<g filter="url(#filter0_d_101_2)">
<path d="M75.7228 33.0926C86.2629 16.4504 108.441 13.7954 123.918 25.9816L453.77 285.69C462.44 292.516 467.5 302.941 467.5 313.975V355.602C467.5 357.862 467.256 360.17 465.642 361.751C460.302 366.98 439.71 380.569 360.5 410C277.972 440.664 168.788 477.634 120.622 493.783C105.899 498.719 89.8353 493.584 81.7173 480.346C58.1829 441.97 13.4024 356.522 9 256C4.81818 160.515 48.7272 75.7172 75.7228 33.0926Z" fill="#646464" fill-opacity="0.28" shape-rendering="crispEdges"/>
<path d="M76.5676 33.6277C86.7573 17.5388 108.238 14.9081 123.3 26.7673L453.152 286.476C461.58 293.112 466.5 303.247 466.5 313.975V355.602C466.5 357.857 466.235 359.77 464.942 361.036C462.391 363.535 456.028 368.182 440.331 375.902C424.656 383.612 399.74 394.353 360.152 409.063C277.641 439.72 168.47 476.686 120.304 492.834C105.985 497.635 90.4243 492.632 82.5698 479.824C59.0709 441.505 14.3906 356.23 9.99904 255.956C5.83064 160.778 49.6096 76.1931 76.5676 33.6277Z" stroke="#FC6161" stroke-width="2" shape-rendering="crispEdges"/>
</g>
<defs>
<filter id="filter0_d_101_2" x="0.72168" y="0.416805" width="514.779" height="533.21" filterUnits="userSpaceOnUse" color-interpolation-filters="sRGB">
<feFlood flood-opacity="0" result="BackgroundImageFix"/>
<feColorMatrix in="SourceAlpha" type="matrix" values="0 0 0 0 0 0 0 0 0 0 0 0 0 0 0 0 0 0 127 0" result="hardAlpha"/>
<feOffset dx="20" dy="10"/>
<feGaussianBlur stdDeviation="14"/>
<feComposite in2="hardAlpha" operator="out"/>
<feColorMatrix type="matrix" values="0 0 0 0 0.795833 0 0 0 0 0 0 0 0 0 0 0 0 0 1 0"/>
<feBlend mode="normal" in2="BackgroundImageFix" result="effect1_dropShadow_101_2"/>
<feBlend mode="normal" in="SourceGraphic" in2="effect1_dropShadow_101_2" result="shape"/>
</filter>
</defs>
</svg>
